<?xml version="1.0" standalone="no"?>
<!DOCTYPE svg PUBLIC "-//W3C//DTD SVG 20010904//EN"
 "http://www.w3.org/TR/2001/REC-SVG-20010904/DTD/svg10.dtd">
<svg version="1.0" xmlns="http://www.w3.org/2000/svg"
 width="840.000000pt" height="670.000000pt" viewBox="0 0 840.000000 670.000000"
 preserveAspectRatio="xMidYMid meet">

<g transform="translate(0.000000,670.000000) scale(0.100000,-0.100000)"
fill="#ffffff" stroke="none">
<path d="M632 6280 c-94 -8 -195 -51 -268 -114 -53 -46 -120 -149 -133 -206
-28 -122 -33 -571 -29 -2911 l4 -2374 43 -84 c58 -114 119 -176 229 -234 l89
-47 3633 0 3632 0 98 51 c120 61 163 105 225 228 l45 91 0 2619 0 2620 -47 91
c-62 119 -120 178 -236 235 l-89 45 -3557 -1 c-1956 -1 -3593 -5 -3639 -9z
m6966 -529 c60 -48 92 -97 92 -143 0 -40 -34 -76 -200 -210 -246 -198 -2165
-1670 -3105 -2381 -178 -134 -180 -136 -205 -120 -27 18 -765 580 -1685 1284
-320 244 -852 651 -1183 904 -331 253 -604 468 -607 477 -11 31 14 95 56 142
54 61 71 70 154 77 39 3 1547 6 3352 7 l3281 2 50 -39z m-6250 -1338 c1317
-1006 2253 -1719 2536 -1933 l219 -165 96 -3 96 -4 302 229 c413 312 1184 900
2398 1826 588 449 695 530 699 526 5 -5 8 -1148 7 -2403 -1 -642 -4 -807 -13
-803 -7 2 -292 193 -633 422 -855 577 -1004 671 -1092 690 -82 17 -210 -73
-238 -168 -25 -84 -16 -165 24 -211 36 -42 1299 -944 1844 -1316 59 -40 107
-80 107 -88 0 -29 -65 -134 -102 -167 l-39 -33 -1162 -7 c-1725 -10 -5493 -2
-5536 13 -57 19 -141 112 -141 155 0 17 253 207 905 677 801 578 1033 754
1053 798 24 55 22 157 -5 207 -60 114 -213 173 -313 121 -42 -23 -323 -214
-930 -636 -668 -464 -711 -493 -718 -485 -8 8 -15 3245 -7 3245 3 0 292 -219
643 -487z"/>
</g>
</svg>
